PathFileType	4	(X/Y/Z)	/Users/itak/Documents/Research/Walk-IL/dataset/trc/00159_00008.trc
DataRate	CameraRate	NumFrames	NumMarkers	Units	OrigDataRate	OrigDataStartFrame	OrigNumFrames
100.000000	100.000000	4	53	mm	100.000000	69	554
Frame#	Time	RPSI			LPSI			L3			STRN			T10			C7			CLAV			RBAK			LBAK			LSHO			LUPA			LAEL			LAOL			LWTS			LWPS			LFRA			LIFD			LHPS			LHTS			RSHO			RUPA			RAEL			RAOL			RWTS			RWPS			RFRA			RIFD			RHTS			RHPS			RBHD			LFHD			RFHD			LBHD			LHIP			RHIP			RASI			LASI			LKNE			LTHI			LANK			LTIP			LTOE			LMT1			LMT5			LHEE			RKNE			RTHI			RANK			RTIP			RTOE			RMT1			RMT5			RHEE			
		X1	Y1	Z1	X2	Y2	Z2	X3	Y3	Z3	X4	Y4	Z4	X5	Y5	Z5	X6	Y6	Z6	X7	Y7	Z7	X8	Y8	Z8	X9	Y9	Z9	X10	Y10	Z10	X11	Y11	Z11	X12	Y12	Z12	X13	Y13	Z13	X14	Y14	Z14	X15	Y15	Z15	X16	Y16	Z16	X17	Y17	Z17	X18	Y18	Z18	X19	Y19	Z19	X20	Y20	Z20	X21	Y21	Z21	X22	Y22	Z22	X23	Y23	Z23	X24	Y24	Z24	X25	Y25	Z25	X26	Y26	Z26	X27	Y27	Z27	X28	Y28	Z28	X29	Y29	Z29	X30	Y30	Z30	X31	Y31	Z31	X32	Y32	Z32	X33	Y33	Z33	X34	Y34	Z34	X35	Y35	Z35	X36	Y36	Z36	X37	Y37	Z37	X38	Y38	Z38	X39	Y39	Z39	X40	Y40	Z40	X41	Y41	Z41	X42	Y42	Z42	X43	Y43	Z43	X44	Y44	Z44	X45	Y45	Z45	X46	Y46	Z46	X47	Y47	Z47	X48	Y48	Z48	X49	Y49	Z49	X50	Y50	Z50	X51	Y51	Z51	X52	Y52	Z52	X53	Y53	Z53	

70	0.6900000000000001	-1866.342651367188	1051.609252929688	28.03809547424316	-1861.78857421875	1051.544799804688	-95.50946807861328	-1864.9736328125	1090.159545898438	-31.61131286621094	-1607.199096679688	1296.373657226562	-32.29172134399414	-1900.850341796875	1248.576049804688	-38.81578063964844	-1832.886840820312	1517.189086914062	-49.88741683959961	-1633.41845703125	1410.674194335938	-41.43875885009766	-1904.470703125	1342.60498046875	58.55686569213867	-1837.310546875	1493.338745117188	-151.8758850097656	-1757.180297851562	1478.722412109375	-228.47705078125	-1783.434936523438	1345.418701171875	-301.3026123046875	-1752.804565429688	1125.181762695312	-314.9651489257812	-1811.277465820312	1110.667114257812	-250.8213043212891	-1636.86181640625	901.8451538085938	-252.233154296875	-1707.3974609375	874.9219360351562	-308.8078308105469	-1729.838134765625	1015.340148925781	-321.7283020019531	-1624.841430664062	725.7847900390625	-214.3426513671875	-1682.269775390625	806.9788208007812	-298.1264038085938	-1617.937255859375	823.637939453125	-266.3392944335938	-1774.36767578125	1495.473999023438	132.7276153564453	-1794.31591796875	1428.345581054688	202.3658599853516	-1797.631958007812	1137.453125	258.0841064453125	-1811.490112304688	1132.209838867188	161.1212158203125	-1647.251098632812	917.505126953125	215.0786743164062	-1716.34423828125	895.6573486328125	268.0610656738281	-1765.968994140625	1065.174682617188	270.7417907714844	-1631.241088867188	730.8700561523438	181.7473449707031	-1616.737915039062	823.6815185546875	216.8441619873047	-1684.8017578125	813.4266357421875	258.5226440429688	-1769.632568359375	1684.0986328125	28.86224174499512	-1611.652587890625	1719.104370117188	-117.6767120361328	-1598.811157226562	1721.975952148438	11.15529823303223	-1787.852294921875	1688.539184570312	-107.5030136108398	-1753.831787109375	990.0669555664062	-212.9128570556641	-1711.479858398438	1010.020202636719	153.8531188964844	-1629.088623046875	1041.375732421875	100.5070495605469	-1632.118286132812	1029.524047851562	-158.0253295898438	-1749.562866210938	496.1723937988281	-182.9936981201172	-1737.408813476562	638.4926147460938	-209.4830169677734	-1853.325439453125	43.23529434204102	-193.8931732177734	-1800.075073242188	276.6843566894531	-201.6738586425781	-1633.048461914062	38.58621215820312	-187.2638397216797	-1679.037841796875	38.55078506469727	-134.772705078125	-1749.33251953125	33.37005996704102	-242.1082153320312	-1897.521484375	41.17239379882812	-119.8002471923828	-1714.8984375	511.5428771972656	120.6978988647461	-1663.886840820312	778.27490234375	158.1413726806641	-1844.539428710938	39.07665252685547	111.0462493896484	-1714.426635742188	389.5409851074219	100.2701950073242	-1622.558471679688	38.28236770629883	86.20519256591797	-1675.400634765625	35.64249038696289	37.28167724609375	-1734.991455078125	32.82743835449219	151.6410827636719	-1892.727783203125	39.35849380493164	42.51782608032227	
71	0.7000000000000001	-1866.483642578125	1051.69287109375	28.23480796813965	-1862.043701171875	1051.650146484375	-95.34893798828125	-1864.955322265625	1090.208374023438	-31.35088348388672	-1607.28271484375	1296.285766601562	-32.1002197265625	-1900.899780273438	1248.689208984375	-38.58525085449219	-1832.780029296875	1517.27001953125	-49.4981575012207	-1633.407104492188	1410.616821289062	-41.15261840820312	-1904.464721679688	1342.63232421875	58.86357879638672	-1837.2177734375	1493.46044921875	-151.5374298095703	-1757.124389648438	1478.886352539062	-228.1313018798828	-1783.377197265625	1345.6591796875	-301.0442504882812	-1752.6015625	1125.426147460938	-315.0332641601562	-1811.156005859375	1110.8056640625	-250.9990692138672	-1636.537109375	902.1397094726562	-252.29541015625	-1706.890625	875.1961669921875	-309.0101318359375	-1729.536499023438	1015.599182128906	-321.868408203125	-1624.31494140625	726.1310424804688	-214.5630493164062	-1681.66650390625	807.2852783203125	-298.3283081054688	-1617.4140625	824.007568359375	-266.4515991210938	-1774.232421875	1495.39013671875	133.0470123291016	-1794.1708984375	1428.22607421875	202.6767120361328	-1797.373413085938	1137.355712890625	258.2971801757812	-1811.292358398438	1132.085571289062	161.3017425537109	-1647.170654296875	917.2929077148438	215.3842926025391	-1716.178588867188	895.5465698242188	268.4079895019531	-1765.689575195312	1065.0888671875	270.9530944824219	-1631.048828125	730.66357421875	182.2403717041016	-1616.53173828125	823.5570678710938	217.2527008056641	-1684.62109375	813.3504028320312	258.9340209960938	-1768.61279296875	1684.648559570312	29.23405265808105	-1610.658935546875	1718.142944335938	-117.6461639404297	-1597.526611328125	1721.038330078125	11.14823722839355	-1787.093872070312	1689.203125	-107.0856246948242	-1754.076538085938	990.0825805664062	-212.8126373291016	-1711.499633789062	1010.019592285156	153.8973388671875	-1629.322875976562	1041.272583007812	100.5054321289062	-1632.427978515625	1029.511962890625	-158.0406188964844	-1749.883666992188	496.1848754882812	-183.0337066650391	-1737.702514648438	638.49462890625	-209.4783782958984	-1853.333740234375	43.18756103515625	-193.9328460693359	-1800.24609375	276.7127990722656	-201.694580078125	-1633.072998046875	38.59331130981445	-187.2658386230469	-1679.061645507812	38.57571029663086	-134.7892608642578	-1749.340209960938	33.34747695922852	-242.1460723876953	-1897.537231445312	41.15130615234375	-119.8305816650391	-1715.215087890625	511.5735473632812	120.7229614257812	-1664.067138671875	778.2183227539062	158.1768798828125	-1844.548095703125	39.04836273193359	111.0551910400391	-1714.699096679688	389.5785827636719	100.2923278808594	-1622.601928710938	38.29886627197266	86.20152282714844	-1675.392578125	35.69461441040039	37.32431030273438	-1734.988647460938	32.82728958129883	151.6423950195312	-1892.74365234375	39.3448600769043	42.52970123291016	
72	0.71	-1866.618530273438	1051.785034179688	28.44219970703125	-1862.296997070312	1051.767822265625	-95.18527221679688	-1864.91357421875	1090.240844726562	-31.08920860290527	-1607.371948242188	1296.203002929688	-31.91563987731934	-1900.961791992188	1248.801513671875	-38.33660125732422	-1832.684326171875	1517.34619140625	-49.09841918945312	-1633.41015625	1410.569091796875	-40.87390899658203	-1904.462280273438	1342.660522460938	59.16559982299805	-1837.13525390625	1493.580444335938	-151.2234344482422	-1757.0830078125	1479.054565429688	-227.7924041748047	-1783.337646484375	1345.881713867188	-300.8020324707031	-1752.384765625	1125.661254882812	-315.066650390625	-1811.019287109375	1110.93701171875	-251.1422271728516	-1636.217163085938	902.4137573242188	-252.3527069091797	-1706.420043945312	875.4537353515625	-309.2067260742188	-1729.244873046875	1015.8515625	-321.9864196777344	-1623.8642578125	726.4153442382812	-214.7973785400391	-1681.13818359375	807.5738525390625	-298.5408630371094	-1616.934814453125	824.338623046875	-266.5614013671875	-1774.11083984375	1495.318359375	133.3473663330078	-1794.054443359375	1428.1201171875	202.988037109375	-1797.156860351562	1137.265502929688	258.5122680664062	-1811.1220703125	1131.968017578125	161.4779815673828	-1647.085571289062	917.1495361328125	215.6905212402344	-1716.032470703125	895.4505004882812	268.7271118164062	-1765.465087890625	1065.015380859375	271.1580810546875	-1630.825073242188	730.52978515625	182.6883239746094	-1616.246826171875	823.4945678710938	217.6508026123047	-1684.442016601562	813.2898559570312	259.3016662597656	-1767.55322265625	1685.187377929688	29.60444450378418	-1609.59716796875	1717.131958007812	-117.5940170288086	-1596.191528320312	1720.025512695312	11.16901206970215	-1786.249877929688	1689.896484375	-106.6780471801758	-1754.3369140625	990.0869140625	-212.7087554931641	-1711.528686523438	1010.030212402344	153.9337463378906	-1629.561157226562	1041.18115234375	100.4876480102539	-1632.76123046875	1029.497680664062	-158.0728454589844	-1750.214477539062	496.1902160644531	-183.0744018554688	-1738.02099609375	638.4937744140625	-209.4695281982422	-1853.35400390625	43.12873840332031	-193.9811553955078	-1800.4384765625	276.7295532226562	-201.7158813476562	-1633.102172851562	38.60189819335938	-187.2686767578125	-1679.090209960938	38.60367584228516	-134.8081665039062	-1749.349365234375	33.32149124145508	-242.1886444091797	-1897.559692382812	41.12155532836914	-119.8723449707031	-1715.5	511.6066284179688	120.7378082275391	-1664.189453125	778.1841430664062	158.2112121582031	-1844.556762695312	39.02414321899414	111.0644454956055	-1714.943359375	389.6163940429688	100.3200759887695	-1622.654663085938	38.32155227661133	86.19657135009766	-1675.374267578125	35.76622772216797	37.38399124145508	-1734.984985351562	32.82959747314453	151.64306640625	-1892.762084960938	39.33130645751953	42.53985977172852	
73	0.72	-1866.742431640625	1051.888671875	28.65518569946289	-1862.529296875	1051.898681640625	-95.02288818359375	-1864.861328125	1090.265258789062	-30.84171676635742	-1607.458129882812	1296.13037109375	-31.73835563659668	-1901.033935546875	1248.91259765625	-38.06996917724609	-1832.59814453125	1517.417236328125	-48.69330596923828	-1633.419555664062	1410.530395507812	-40.60759735107422	-1904.455322265625	1342.691772460938	59.46036148071289	-1837.06640625	1493.701049804688	-150.9319915771484	-1757.050415039062	1479.2216796875	-227.4606323242188	-1783.313720703125	1346.084838867188	-300.574951171875	-1752.1591796875	1125.885375976562	-315.0628662109375	-1810.868896484375	1111.062622070312	-251.2424468994141	-1635.892822265625	902.6663818359375	-252.4130249023438	-1705.98828125	875.6949462890625	-309.3912963867188	-1728.963012695312	1016.096130371094	-322.0765380859375	-1623.489135742188	726.6383056640625	-215.0428466796875	-1680.69091796875	807.8424682617188	-298.7635498046875	-1616.50048828125	824.6287231445312	-266.6706848144531	-1773.997436523438	1495.26123046875	133.6348571777344	-1793.967041015625	1428.031127929688	203.2993316650391	-1796.982299804688	1137.184204101562	258.7296142578125	-1810.976806640625	1131.85986328125	161.6536102294922	-1646.99072265625	917.0740356445312	215.999267578125	-1715.903686523438	895.3734130859375	269.011474609375	-1765.29736328125	1064.955444335938	271.3602905273438	-1630.582275390625	730.4603271484375	183.0875854492188	-1615.899536132812	823.4814453125	218.0262451171875	-1684.265625	813.2495727539062	259.6261596679688	-1766.4599609375	1685.715576171875	29.97125816345215	-1608.471435546875	1716.08349609375	-117.5159530639648	-1594.81689453125	1718.948608398438	11.22139549255371	-1785.3232421875	1690.6083984375	-106.2817001342773	-1754.603271484375	990.0803833007812	-212.6008758544922	-1711.56689453125	1010.050231933594	153.9657440185547	-1629.794189453125	1041.10107421875	100.4633941650391	-1633.09814453125	1029.479858398438	-158.1119384765625	-1750.555297851562	496.185791015625	-183.1172332763672	-1738.362548828125	638.4891357421875	-209.4599456787109	-1853.389038085938	43.05625915527344	-194.0437774658203	-1800.654174804688	276.7313842773438	-201.7426147460938	-1633.13720703125	38.61350631713867	-187.2720031738281	-1679.124755859375	38.63610458374023	-134.8306732177734	-1749.3603515625	33.29065704345703	-242.2370758056641	-1897.591552734375	41.08072662353516	-119.9323272705078	-1715.737182617188	511.638427734375	120.7477416992188	-1664.293701171875	778.1675415039062	158.2654571533203	-1844.566040039062	39.00222396850586	111.0736083984375	-1715.138793945312	389.6498107910156	100.3528823852539	-1622.717895507812	38.3532600402832	86.18988037109375	-1675.357055664062	35.84906387329102	37.45060729980469	-1734.980712890625	32.83579254150391	151.6421356201172	-1892.782592773438	39.31475448608398	42.54820251464844	
